<svg width="22" height="22" viewBox="0 0 22 22" fill="none" xmlns="http://www.w3.org/2000/svg">
<circle cx="11" cy="11" r="11" fill="#15BE65"/>
<path d="M7.072 16L5.252 6.844H6.918L7.716 11.464C7.79067 11.9587 7.86533 12.4487 7.94 12.934C8.01467 13.4193 8.08933 13.9047 8.164 14.39H8.22C8.32267 13.9047 8.42067 13.4193 8.514 12.934C8.61667 12.4393 8.71933 11.9493 8.822 11.464L9.942 6.844H11.356L12.476 11.464C12.5787 11.94 12.6813 12.4253 12.784 12.92C12.8867 13.4053 12.9893 13.8953 13.092 14.39H13.148C13.2227 13.8953 13.2927 13.4053 13.358 12.92C13.4327 12.4347 13.5073 11.9493 13.582 11.464L14.38 6.844H15.934L14.184 16H12.168L11.034 11.184C10.9593 10.8293 10.8847 10.4793 10.81 10.134C10.7447 9.77933 10.684 9.42467 10.628 9.07H10.572C10.5067 9.42467 10.4367 9.77933 10.362 10.134C10.2967 10.4793 10.2267 10.8293 10.152 11.184L9.046 16H7.072Z" fill="white"/>
</svg>
